<?xml version="1.0" encoding="UTF-8" standalone="no" ?>
<!DOCTYPE svg PUBLIC "-//W3C//DTD SVG 1.1//EN" "http://www.w3.org/Graphics/SVG/1.1/DTD/svg11.dtd">
<svg xmlns="http://www.w3.org/2000/svg" xmlns:xlink="http://www.w3.org/1999/xlink" version="1.1" width="256" height="290" viewBox="0 0 256 290" xml:space="preserve">
<desc>Created with Fabric.js 4.2.0</desc>
<defs>
</defs>
<g transform="matrix(1 0 0 1 128 145)" id="b4207082-5003-48b3-8703-d8810c7c4dc1"  >
<rect style="stroke: none; stroke-width: 1; stroke-dasharray: none; stroke-linecap: butt; stroke-dashoffset: 0; stroke-linejoin: miter; stroke-miterlimit: 4; fill: rgb(255,255,255); fill-opacity: 0; fill-rule: nonzero; opacity: 1;" vector-effect="non-scaling-stroke"  x="-128" y="-145" rx="0" ry="0" width="256" height="290" />
</g>
<g transform="matrix(Infinity NaN NaN Infinity 0 0)" id="27221088-d3c9-4d0b-ad0a-f4e92351f39b"  >
</g>
<g transform="matrix(0.14 0 0 0.14 128 145)"  >
<g style="" vector-effect="non-scaling-stroke"   >
		<g transform="matrix(1 0 0 1 0 0)" id="svg_2"  >
<path style="stroke: rgb(0,0,0); stroke-width: 1; stroke-dasharray: none; stroke-linecap: butt; stroke-dashoffset: 0; stroke-linejoin: miter; stroke-miterlimit: 4; fill: rgb(127,127,127); fill-rule: nonzero; opacity: 1;" vector-effect="non-scaling-stroke"  transform=" translate(-885.5, -1004.2)" d="M 161.2 1807.70001 L 0 0.000009999999974752427 L 1771 0.000009999999974752427 L 1609.6 1807.40001 L 884.3999999999999 2008.40001 L 161.19999999999982 1807.70001 z" stroke-linecap="round" />
</g>
		<g transform="matrix(1 0 0 1 361.9 -2.9)" id="svg_3"  >
<path style="stroke: none; stroke-width: 1; stroke-dasharray: none; stroke-linecap: butt; stroke-dashoffset: 0; stroke-linejoin: miter; stroke-miterlimit: 4; fill: rgb(76,76,76); fill-rule: nonzero; opacity: 1;" vector-effect="non-scaling-stroke"  transform=" translate(-1247.4, -1001.3)" d="M 885.5 1854.80001 L 1471.5 1692.30001 L 1609.3 147.80000999999993 L 885.5 147.80000999999993 L 885.5 1854.80001 z" stroke-linecap="round" />
</g>
		<g transform="matrix(1 0 0 1 278 -314.85)" id="svg_4"  >
<path style="stroke: none; stroke-width: 1; stroke-dasharray: none; stroke-linecap: butt; stroke-dashoffset: 0; stroke-linejoin: miter; stroke-miterlimit: 4; fill: rgb(255,255,255); fill-rule: nonzero; opacity: 1;" vector-effect="non-scaling-stroke"  transform=" translate(-1163.5, -689.35)" d="M 885.5 802.70001 L 1178.9 802.70001 L 1199.1000000000001 575.70001 L 885.5000000000001 575.70001 L 885.5000000000001 354.10001 L 1441.5 354.10001 L 1436.2 413.60001 L 1381.7 1024.60001 L 885.5 1024.60001 L 885.5 802.7000100000001 z" stroke-linecap="round" />
</g>
		<g transform="matrix(1 0 0 1 -241.6 368.05)" id="svg_5"  >
<path style="stroke: none; stroke-width: 1; stroke-dasharray: none; stroke-linecap: butt; stroke-dashoffset: 0; stroke-linejoin: miter; stroke-miterlimit: 4; fill: rgb(235,235,235); fill-rule: nonzero; opacity: 1;" vector-effect="non-scaling-stroke"  transform=" translate(-643.9, -1372.25)" d="M 886.7 1378.50001 L 885.7 1378.50001 L 638.8000000000001 1311.80001 L 623.0000000000001 1135.00001 L 400.60000000000014 1135.00001 L 431.70000000000016 1483.10001 L 885.9000000000001 1609.5000100000002 L 887.2 1609.5000100000002 L 887.2 1378.5000100000002 L 886.7 1378.5000100000002 z" stroke-linecap="round" />
</g>
		<g transform="matrix(1 0 0 1 248.8 307.85)" id="svg_6"  >
<path style="stroke: none; stroke-width: 1; stroke-dasharray: none; stroke-linecap: butt; stroke-dashoffset: 0; stroke-linejoin: miter; stroke-miterlimit: 4; fill: rgb(255,255,255); fill-rule: nonzero; opacity: 1;" vector-effect="non-scaling-stroke"  transform=" translate(-1134.3, -1312.05)" d="M 1160.1 1014.90001 L 1133.3999999999999 1311.6000099999999 L 886.0999999999999 1378.30001 L 886.0999999999999 1609.30001 L 1340.6 1483.30001 L 1343.8999999999999 1445.80001 L 1382.4999999999998 1014.8000099999999 L 1160.0999999999997 1014.8000099999999 L 1160.0999999999997 1014.90001 z" stroke-linecap="round" />
</g>
		<g transform="matrix(1 0 0 1 -276.9 -314.95)" id="svg_7"  >
<path style="stroke: none; stroke-width: 1; stroke-dasharray: none; stroke-linecap: butt; stroke-dashoffset: 0; stroke-linejoin: miter; stroke-miterlimit: 4; fill: rgb(235,235,235); fill-rule: nonzero; opacity: 1;" vector-effect="non-scaling-stroke"  transform=" translate(-608.6, -689.25)" d="M 886.3 354.10001 L 886.3 575.8000099999999 L 350.9 575.8000099999999 L 346.29999999999995 526.00001 L 336.19999999999993 413.60001 L 330.8999999999999 354.10001 L 886.3 354.10001 z M 885.5 802.70001 L 885.5 1024.40001 L 641.4 1024.40001 L 637.1 974.6000100000001 L 627 862.2000100000001 L 621.7 802.7000100000001 L 885.4000000000001 802.7000100000001 L 885.5000000000001 802.7000100000001 z" stroke-linecap="round" />
</g>
</g>
</g>
</svg>