<?xml version="1.0" encoding="UTF-8" standalone="no" ?>
<!DOCTYPE svg PUBLIC "-//W3C//DTD SVG 1.1//EN" "http://www.w3.org/Graphics/SVG/1.1/DTD/svg11.dtd">
<svg xmlns="http://www.w3.org/2000/svg" xmlns:xlink="http://www.w3.org/1999/xlink" version="1.1" width="256" height="291" viewBox="0 0 256 291" xml:space="preserve">
<desc>Created with Fabric.js 4.2.0</desc>
<defs>
</defs>
<rect x="0" y="0" width="100%" height="100%" fill="transparent"></rect>
<g transform="matrix(0 0 0 0 0 0)" id="d59d1053-1a01-46a0-bef3-3a8869dff170"  >
</g>
<g transform="matrix(1 0 0 1 128 145.5)" id="bc8e64ef-8b9f-4d8a-be5e-6403d4911bd7"  >
<rect style="stroke: none; stroke-width: 1; stroke-dasharray: none; stroke-linecap: butt; stroke-dashoffset: 0; stroke-linejoin: miter; stroke-miterlimit: 4; fill: rgb(255,255,255); fill-opacity: 0; fill-rule: nonzero; opacity: 1;" vector-effect="non-scaling-stroke"  x="-128" y="-145.5" rx="0" ry="0" width="256" height="291" />
</g>
<g transform="matrix(1.15 0 0 1.15 128.06 145.56)"  >
<path style="stroke: none; stroke-width: 1; stroke-dasharray: none; stroke-linecap: butt; stroke-dashoffset: 0; stroke-linejoin: miter; stroke-miterlimit: 4; fill: rgb(76,76,76); fill-rule: nonzero; opacity: 1;" vector-effect="non-scaling-stroke"  transform=" translate(-128.22, -115.03)" d="M 201.025 79.674 C 198.61996850076244 78.84902751224384 196.19453215176247 78.08478498929802 193.751 77.382 C 194.15622547758943 75.73540569416886 194.5309562508361 74.0814560802214 194.875 72.42099999999996 C 200.381 45.693000000000005 196.781 24.16100000000001 184.487 17.073000000000008 C 172.7 10.275000000000007 153.422 17.363000000000007 133.952 34.30600000000001 C 132.03348310860656 35.97934310018862 130.15755119457603 37.700892419801 128.32599999999988 39.46900000000008 C 127.09946002828325 38.2933132297081 125.85124589051605 37.14044878302035 124.58199999999992 36.01099999999995 C 104.17699999999999 17.89300000000001 83.72399999999999 10.259000000000011 71.44299999999998 17.36800000000001 C 59.66699999999999 24.18500000000001 56.17899999999999 44.42800000000001 61.13599999999998 69.75800000000001 C 61.62918689731602 72.26640897604015 62.186033277390315 74.7618810170438 62.80599999999997 77.24199999999999 C 59.911999999999985 78.06400000000001 57.11699999999998 78.94 54.442999999999984 79.872 C 30.520999999999983 88.212 15.24299999999998 101.28399999999999 15.24299999999998 114.842 C 15.24299999999998 128.846 31.64299999999998 142.892 56.56099999999998 151.40800000000002 C 58.58148184451541 152.09533042179768 60.6187811245065 152.73219484483909 62.67100000000003 153.31800000000004 C 62.00430188585805 155.98994022958516 61.412404178526664 158.679990260595 60.896 161.38500000000005 C 56.16999999999998 186.27500000000003 59.86099999999998 206.038 71.60599999999998 212.81300000000002 C 83.73699999999998 219.80800000000002 104.09699999999998 212.61800000000002 123.92299999999997 195.288 C 125.48999999999997 193.918 127.06299999999997 192.465 128.63799999999998 190.942 C 130.62182188668203 192.85605947182393 132.65861289322328 194.71444786073263 134.74599999999992 196.515 C 153.95 213.04000000000002 172.916 219.71300000000002 184.65099999999998 212.92000000000002 C 196.771 205.90400000000002 200.70899999999997 184.673 195.59499999999997 158.842 C 195.20499999999998 156.869 194.74999999999997 154.854 194.23999999999998 152.80200000000002 C 195.67 152.38000000000002 197.07299999999998 151.94400000000002 198.44199999999998 151.49 C 224.34599999999998 142.90800000000002 241.19899999999998 129.03300000000002 241.19899999999998 114.84200000000001 C 241.19899999999998 101.23500000000001 225.42899999999997 88.07500000000002 201.02499999999998 79.674 z" stroke-linecap="round" />
</g>
<g transform="matrix(1.15 0 0 1.15 128 145.5)"  >
<path style="stroke: none; stroke-width: 1; stroke-dasharray: none; stroke-linecap: butt; stroke-dashoffset: 0; stroke-linejoin: miter; stroke-miterlimit: 4; fill: rgb(127,127,127); fill-rule: nonzero; opacity: 1;" vector-effect="non-scaling-stroke"  transform=" translate(-128.22, -115.03)" d="M 195.406 142.328 C 194.171 142.737 192.90300000000002 143.132 191.61100000000002 143.51500000000001 C 188.751 134.46200000000002 184.89100000000002 124.83500000000001 180.169 114.89000000000001 C 184.67600000000002 105.18 188.38600000000002 95.67700000000002 191.166 86.68200000000002 C 193.477 87.35200000000002 195.721 88.05700000000002 197.883 88.80200000000002 C 218.793 95.99900000000002 231.54700000000003 106.64200000000002 231.54700000000003 114.84200000000001 C 231.54700000000003 123.57700000000001 217.77200000000002 134.917 195.40700000000004 142.328 z M 186.126 160.717 C 188.387 172.139 188.71 182.466 187.21200000000002 190.53900000000002 C 185.866 197.793 183.16000000000003 202.62900000000002 179.81400000000002 204.566 C 172.693 208.688 157.46400000000003 203.33 141.04200000000003 189.198 C 139.15900000000002 187.578 137.26200000000003 185.848 135.36000000000004 184.018 C 141.72700000000003 177.054 148.09000000000003 168.958 154.30000000000004 159.968 C 165.22400000000005 158.999 175.54400000000004 157.414 184.90300000000005 155.25099999999998 C 185.36300000000006 157.111 185.77300000000005 158.93399999999997 186.12600000000006 160.71699999999998 z M 92.27600000000001 203.854 C 85.31900000000002 206.311 79.778 206.381 76.42900000000002 204.45000000000002 C 69.30100000000002 200.34 66.33900000000001 184.47000000000003 70.38000000000001 163.185 C 70.86054002870128 160.66956034773963 71.4107515561404 158.16793193631648 72.03000000000002 155.68300000000005 C 81.28500000000001 157.73 91.53000000000002 159.203 102.48000000000002 160.09099999999998 C 108.73100000000002 168.88799999999998 115.27800000000002 176.974 121.87600000000002 184.05499999999998 C 120.47374929117699 185.41146345017714 119.03831436646941 186.73319725773595 117.571 188.01899999999998 C 108.80400000000003 195.68299999999996 100.01900000000003 201.11899999999997 92.27700000000003 203.85399999999998 z M 59.68300000000001 142.274 C 48.665000000000006 138.508 39.566 133.614 33.32900000000001 128.274 C 27.72500000000001 123.474 24.89500000000001 118.709 24.89500000000001 114.842 C 24.89500000000001 106.615 37.162000000000006 96.12 57.62100000000001 88.987 C 60.1888991993863 88.09561733047508 62.782343386835535 87.27960113828162 65.39799999999994 86.53999999999999 C 68.22600000000001 95.737 71.93500000000002 105.353 76.41100000000002 115.077 C 71.87700000000001 124.946 68.11500000000001 134.715 65.26100000000001 144.02 C 63.38764137494895 143.483792233883 61.52774631211628 142.90161640388914 59.682999999999986 142.274 z M 70.60900000000001 67.904 C 66.36200000000001 46.20099999999999 69.182 29.83 76.27900000000001 25.721999999999994 C 83.83900000000001 21.345999999999993 100.554 27.585999999999995 118.17200000000001 43.229 C 119.29800000000002 44.229 120.42900000000002 45.275999999999996 121.56200000000001 46.359 C 114.99800000000002 53.408 108.51100000000001 61.433 102.31400000000001 70.179 C 91.68700000000001 71.164 81.51400000000001 72.74600000000001 72.162 74.86500000000001 C 71.58592341495206 72.55774963368566 71.06809231504158 70.23634582326922 70.60900000000001 67.90299999999998 z M 168.07600000000002 91.971 C 165.86707713845166 88.15543004567922 163.5762123396441 84.38788933449808 161.20499999999998 80.67099999999996 C 168.41500000000002 81.581 175.322 82.79100000000001 181.80800000000002 84.272 C 179.86100000000002 90.513 177.43400000000003 97.039 174.57600000000002 103.72900000000001 C 172.48781711614737 99.76678980489447 170.32071842967562 95.84667498096601 168.0759999999999 91.97099999999978 z M 128.329 53.257000000000005 C 132.781 58.080000000000005 137.24 63.46600000000001 141.626 69.309 C 132.72901076886703 68.88858015603988 123.81717724324167 68.88657794675537 114.91999999999967 69.30300000000008 C 119.31 63.513999999999996 123.807 58.135999999999996 128.329 53.257 z M 88.327 92.037 C 86.1103860802869 95.88185198239829 83.98380707999242 99.77791275669135 81.94899999999998 103.72200000000007 C 79.138 97.055 76.733 90.50000000000001 74.769 84.17000000000002 C 81.21600000000001 82.72700000000002 88.09100000000001 81.54800000000002 95.254 80.65300000000002 C 92.8562133136265 84.39292449067852 90.54657673716751 88.18863732255507 88.32699999999996 92.03700000000006 z M 95.46 149.72 C 88.05999999999999 148.894 81.08099999999999 147.775 74.636 146.37199999999999 C 76.631 139.92999999999998 79.089 133.23399999999998 81.96 126.42399999999998 C 84.00338525761889 130.37101071428273 86.13930905366144 134.26942173884248 88.36600000000006 138.11600000000016 C 90.63811135845935 142.0398277533922 93.00345008880194 145.9089270805553 95.45999999999997 149.71999999999989 z M 128.596 177.109 C 124.021 172.172 119.458 166.71200000000002 115.001 160.839 C 119.327 161.009 123.738 161.095 128.221 161.095 C 132.827 161.095 137.38 160.992 141.861 160.792 C 137.46099999999998 166.772 133.018 172.24 128.596 177.109 z M 174.668 126.07700000000001 C 177.68800000000002 132.961 180.234 139.621 182.256 145.954 C 175.704 147.449 168.631 148.65300000000002 161.178 149.547 C 163.56635137348687 145.76071395831485 165.87914228141173 141.92728886687482 168.11500000000007 138.04899999999998 C 170.38788549167765 134.10744561038896 172.57275988552448 130.11579045349382 174.66800000000006 126.07699999999997 z M 159.75300000000001 133.227 C 156.33019995471616 139.1729560748575 152.71495625234294 145.00603839538385 148.91299999999993 150.71699999999998 C 142.209 151.19600000000003 135.281 151.443 128.221 151.443 C 121.19 151.443 114.35000000000001 151.22400000000002 107.763 150.79700000000003 C 103.86243632936193 145.09933555980356 100.17880258393079 139.25615777127538 96.72 133.28000000000006 C 93.27736432208229 127.33554935518039 90.06171394843334 121.26250675117075 87.07999999999998 115.07399999999997 C 90.05412995312683 108.88363924577928 93.26006313761297 102.80734345048238 96.69099999999999 96.8580000000001 L 96.691 96.86 C 100.12086042474607 90.90938954935014 103.77549455593788 85.0911960009522 107.64699999999999 79.41799999999999 C 114.367 78.91000000000001 121.257 78.644 128.222 78.644 C 135.21800000000002 78.644 142.11700000000002 78.912 148.835 79.424 C 152.6673458330263 85.08846599302339 156.29860544132993 90.88640718629448 159.72199999999995 96.80699999999993 C 163.16473485946096 102.74310730116339 166.41345292304246 108.7896383033945 169.463 114.93700000000003 C 166.44482222744375 121.14699361028931 163.20643643113843 127.24752674598048 159.75400000000005 133.22700000000003 z M 179.66600000000003 25.435000000000002 C 187.23200000000003 29.799000000000003 190.175 47.396 185.42100000000002 70.473 C 185.10940066362923 71.97632709894606 184.7706787752547 73.47390458179882 184.40500000000003 74.965 C 175.03100000000003 72.802 164.85100000000003 71.19200000000001 154.19300000000004 70.19200000000001 C 147.98400000000004 61.351000000000006 141.55100000000004 53.31200000000001 135.09300000000005 46.354000000000006 C 136.78526320437678 44.72254791888841 138.51779773943377 43.13339095312986 140.28900000000007 41.588000000000015 C 156.97100000000003 27.070000000000007 172.56200000000004 21.338000000000008 179.66600000000005 25.43500000000001 z" stroke-linecap="round" />
</g>
<g transform="matrix(1.15 0 0 1.15 128.01 145.29)"  >
<path style="stroke: none; stroke-width: 1; stroke-dasharray: none; stroke-linecap: butt; stroke-dashoffset: 0; stroke-linejoin: miter; stroke-miterlimit: 4; fill: rgb(76,76,76); fill-rule: nonzero; opacity: 1;" vector-effect="non-scaling-stroke"  transform=" translate(-128.22, -114.84)" d="M 128.221 94.665 C 139.365 94.665 148.398 103.69900000000001 148.398 114.84200000000001 C 148.398 125.98600000000002 139.365 135.02 128.221 135.02 C 117.078 135.02 108.04400000000001 125.986 108.04400000000001 114.84200000000001 C 108.04400000000001 103.69900000000001 117.07800000000002 94.66500000000002 128.221 94.66500000000002" stroke-linecap="round" />
</g>
</svg>